<?xml version="1.0" encoding="UTF-8"?>
<svg id="Layer_1" xmlns="http://www.w3.org/2000/svg" version="1.1" viewBox="0 0 475.42 444.98">
  <!-- Generator: Adobe Illustrator 29.1.0, SVG Export Plug-In . SVG Version: 2.1.0 Build 142)  -->
  <defs>
    <style>
      .st0 {
        fill: #c49c61;
      }

      .st1 {
        fill: #4a885c;
      }

      .st2 {
        fill: #3391c4;
      }
    </style>
  </defs>
  <g>
    <path class="st2" d="M108.64,416.2c-3.68.22-7.14-2.81-11.04-2.81-.87,0-1.95.22-2.81.65-2.81-1.73-8.44-3.68-10.17-5.63-3.68-1.08-7.36-1.95-11.04-3.46-4.54-1.73-9.95-1.3-14.5-2.81-1.51-.43-3.03-.87-4.54-1.51-1.3-.65-2.38-1.95-3.89-2.38-2.16-.43-4.54,0-6.71-.43-2.81-.65-5.84-2.6-8.87-2.6-4.11,0-6.06,3.03-6.06,6.71,0,2.6.43,4.98.43,7.57.22,2.16,0,4.33,0,6.49,0,2.81.65,5.41.65,8.01,0,3.25-1.52,5.19-3.25,7.79v1.73c0,1.95-2.6,8.01-3.89,9.31-1.52,1.3-3.46,2.16-5.41,2.16-3.68,0-6.28-2.81-7.57-6.06-.65-1.73-.65-3.68-1.08-5.41-.43-1.95-1.73-3.68-1.73-5.63,0-1.73.65-3.25.65-4.98s-.65-3.46-.65-4.98c0-2.38,1.08-4.54,1.3-6.71,0-2.16.22-4.11.22-6.28,0-4.11-.22-8.01-.22-12.12,0-6.28.43-12.55.43-18.83,0-5.41-.22-11.04-1.08-16.23-.65-4.54-2.38-8.22-2.38-12.77,0-2.6.22-5.19.22-7.79,0-3.68-1.08-6.28-1.73-9.52-.43-2.6-.22-4.98-.65-7.36-.22-2.16-.87-4.33-1.08-6.71-.22-2.6.22-5.19.22-8.01,0-4.54-1.95-8.66-1.95-13.2,0-2.38.22-4.76.22-7.14,0-1.73,0-3.46-.65-4.98,1.08-3.25,4.11-6.28,7.57-6.28,5.84,0,8.22,8.87,9.09,13.42.43,1.95.22,3.68.65,5.63.65,3.46,2.38,6.71,2.81,9.96.22,1.51-.22,2.81-.22,4.11,0,2.81,1.3,5.19,1.73,7.57.43,2.38.22,4.98.65,7.36.65,4.54,1.95,8.87,2.81,13.42.43,2.38.43,4.76,1.08,7.14.22,1.08.87,1.73,1.08,2.81.87,4.33,1.08,9.09,1.08,13.63,0,1.73,1.08,2.16,1.08,3.68.43,1.73.22,3.46.22,5.19,0,2.16,0,4.98,1.52,6.49h.87c3.68,0,12.99-16.01,15.37-19.48,3.46-5.19,8.44-9.31,11.69-14.5,1.3-2.16,2.6-4.54,3.9-6.71,3.25-5.41,6.93-10.39,10.6-15.58,1.3-1.95,2.38-3.9,3.9-5.63.87-1.08,1.3-2.6,2.16-3.9.65-1.08,1.51-1.73,2.16-2.81.87-1.08,1.08-2.38,1.73-3.25l1.08-.65c.22-.65,0-.22,0-.65v-.43l1.08-.65c.22-.43,0,0,0-.65,0-.87,1.3-.87,1.73-1.52.43-.43.22-1.08.65-1.73l1.08-.43c2.16-4.76,7.36-15.8,13.42-15.8,1.08,0,1.3,1.3,2.16,1.73,1.52.87,2.38,1.51,2.38,3.46,0,1.51-.65,3.25-1.73,4.33-2.16,2.6-3.46,7.57-6.27,11.25-1.3,1.51-2.81,3.25-3.9,4.98-.22.43-.22,1.08-.43,1.73-.87,1.08-2.16,2.16-2.81,3.25-.65,1.08-1.08,1.95-1.73,2.81-1.73,2.16-3.68,4.33-4.98,6.71-1.08,1.95-1.73,4.33-2.81,6.06-1.73,2.81-4.98,4.54-6.71,7.36-1.08,1.73-1.08,3.9-2.16,5.63-1.51,2.38-4.54,3.46-6.28,6.06-1.08,1.95-1.3,4.54-2.6,6.71l-1.3.43c-1.52,3.9-5.19,6.28-7.79,9.52-1.51,2.16-3.25,4.76-4.33,7.36-.43.87-.65,1.73-1.08,2.6-2.38,3.9-5.63,6.49-7.36,10.6,1.52,4.54,7.36,4.76,11.25,4.54,2.16,2.16,9.74,4.76,12.77,5.63,2.16.43,4.54,0,6.71.43,1.95.43,3.68,1.73,5.63,2.38,6.49,2.16,6.93,1.95,13.85,1.95,3.68,0,6.06,2.16,9.52,3.03,1.73.43,6.06.43,7.14,1.08.43.22.65.87,1.08,1.08,2.38,1.73,4.76,4.11,4.76,7.14,0,3.9-3.46,4.76-6.28,6.28h-.65Z"/>
    <path class="st2" d="M193.03,363.82c-.22,3.9-1.95,7.57-1.95,11.25,0,2.16.43,4.33.43,6.49,0,3.03-.65,5.84-1.51,8.66-.65,1.51-1.52,2.81-1.95,4.33-.43,1.95-.22,3.9-.65,5.63-.22,1.51-1.08,2.81-1.3,4.33-.22,2.16.22,4.33.22,6.49,0,3.03-1.51,5.19-1.95,8.01-.43,2.6-.22,9.31-.87,11.25-1.3,3.25-5.63,9.95-9.52,9.95-4.11,0-9.52-4.54-9.52-8.87,0-2.81,1.52-5.19,1.52-7.79,0-.87-.22-1.73-.43-2.6,1.08-3.03,1.95-3.68,1.95-7.14,0-1.08-.22-2.6-.65-3.68-1.08-.43-2.16-.65-3.25-.65-3.68,0-7.14,1.73-10.82,1.73-2.81,0-5.63-.43-8.22-.43-1.73,0-3.46.22-5.19.22-.65,0-1.3,0-1.95-.22-2.81-.65-14.28-11.25-15.15-13.63-.22-1.08-.43-2.38-.43-3.46,0-3.68,1.95-6.71,3.68-9.74,1.08-1.95,2.16-4.76,3.68-6.28.65-.87,2.16-1.08,3.03-1.95,1.08-.65,1.51-1.73,2.6-2.38,4.54-3.25,10.6-4.76,16.01-4.76,1.51,0,3.25,0,4.76.22,3.25.65,5.63,2.6,8.66,3.89,1.08.43,4.33.65,4.98,1.3.43.22.65.65.65,1.08,1.08.43,2.16.22,3.25.65,2.16-1.73,1.08-5.84,1.08-8.44,0-4.33,1.3-8.66,1.3-13.2,0-5.63-4.11-18.61-10.6-19.69h-1.51c-5.41,0-8.22,4.98-14.72,4.98-4.54,3.9-7.14,7.36-12.55,10.17-1.08.43-2.38,1.73-3.68,1.73-.43,0-.87-.22-1.3-.65-.65-.87-1.08-1.95-1.08-3.03,0-6.06,6.71-8.44,8.44-12.55,1.3-.43,2.38-1.08,3.25-1.95l.65-1.08c1.73-.87,3.9-1.52,5.63-2.6.65-.43,1.08-1.3,1.73-1.95,3.46-1.95,9.74-3.25,13.85-3.25,2.6,0,8.22.43,10.6,1.52.87.22,1.3.87,1.95,1.3,4.11,1.73,6.49,3.25,9.31,6.71,5.63,6.71,7.79,16.88,7.79,25.32,0,1.51,0,3.25-.22,4.76ZM165.54,386.98c-3.25-3.25-14.28-5.19-18.83-5.19-4.11,0-9.52,1.08-9.52,6.28,0,3.46,2.38,8.22,5.19,10.17,2.81,1.95,7.14,1.73,10.6,1.95,1.95.22,3.89.65,5.84.65,3.46,0,7.79-.65,9.74-3.68l.22-1.3c0-3.03-1.08-6.71-3.25-8.87Z"/>
    <path class="st2" d="M306.42,421.61c-2.38,3.03-3.46,6.93-8.01,6.93-3.9,0-10.82-1.73-12.55-5.63-.65-1.73-.65-3.46-.65-4.98,0-5.19.65-10.17.65-15.37,0-3.68-1.08-7.14-1.08-9.74,0-1.52.43-2.6.43-3.9,0-3.03.22-6.06-.43-9.09-.87-3.9-4.54-7.36-4.54-11.47,0-1.3.22-2.6.22-3.9,0-2.81-1.3-1.3-1.3-5.63,0-1.73-1.95-6.71-2.81-8.44-.87-2.38-1.52-5.19-3.9-6.71h-1.08c-9.74-.43-13.42,6.28-19.48,12.77-2.16,2.38-3.68,4.76-5.63,7.36-2.38,3.03-3.25,2.6-5.41,7.14-1.08,2.16-.87,4.98-1.73,7.36-.65,1.3-1.73,2.38-2.38,3.9-.65,1.3-1.08,2.81-1.51,4.33-1.3,4.33-.87,9.09-1.08,13.42-.22,2.6-1.3,5.19-1.3,7.79,0,4.76,2.6,9.09,2.6,14.07,0,5.63-4.11,11.47-10.39,11.47-3.03,0-6.49-1.95-7.79-4.98-.65-1.95-.43-3.9-.43-6.06,0-3.68-1.73-6.71-1.73-7.14,0-1.52.65-3.03.65-4.54,0-2.16-1.95-3.9-2.38-6.06-.22-1.51.22-3.46.22-4.98,0-2.6-1.3-4.98-1.73-7.36-1.95-9.31-3.03-24.24-3.03-33.98,0-4.33,0-12.55,5.84-12.55,3.68,0,6.49,3.25,8.87,5.84,1.52,5.41,1.08,13.2,3.9,17.74,7.14,0,8.22-7.57,11.04-12.12,1.3-1.95,3.25-3.25,4.54-4.98s1.95-3.9,3.25-5.63c.22-.22,9.52-8.87,9.52-8.87,1.73-1.3,3.9-1.08,5.63-2.38,1.95-1.3,3.9-3.89,6.49-3.89.65,0,1.3.65,2.16.65,1.95,0,4.11-.65,6.06-.65,4.76,0,7.79,4.76,11.47,6.71.43.43,1.08.22,1.52.65.22.22.87,2.16,1.3,2.81,1.3,2.16,3.25,4.11,4.33,6.71,1.08,2.6,1.3,5.63,2.38,8.22,3.9,12.12,7.79,22.07,7.79,35.06,0,2.6-.65,4.98-.65,7.36,0,6.71,2.38,12.98,2.38,19.69,0,1.08,0,2.16-.22,3.03Z"/>
    <path class="st2" d="M383.02,407.32c-1.3,1.3-2.38,3.03-3.89,3.9-1.95,1.3-4.54,1.95-6.71,2.81-1.73.87-4.33,2.38-6.06,2.81-1.73.43-3.68,0-5.41,0-2.16,0-4.33.43-6.49.43s-4.11-.65-6.06-2.16c-5.84-.43-11.69-2.6-16.01-6.71-.87-.65-1.08-1.51-1.73-2.16-.65-.43-1.52-.65-2.16-1.08-6.71-4.98-8.01-10.17-8.01-18.18,0-7.57,3.9-14.28,7.36-20.78.22-.65.22-1.3.65-1.73.65-.87,1.95-1.3,2.81-2.16,1.51-1.73,2.38-4.11,4.33-5.63.65-.65,1.52-.65,2.16-1.08,1.3-.87,2.16-2.81,3.46-3.46,4.11-2.16,11.25-2.6,15.8-2.6,9.09,0,21.64,3.03,26.4,11.69,1.08,1.52,1.52,3.03,2.81,4.33,1.73,1.51,3.9,2.6,5.19,4.54.22.43.22,1.08.43,1.51,1.95,4.11,2.6,8.22,2.6,12.77,0,10.17-4.33,16.23-11.47,22.94ZM376.96,374c-.65-.65-1.3-1.08-1.73-1.73-1.95-2.16-3.25-6.28-6.06-7.14-1.51-.65-13.85-3.46-14.93-3.46-1.3,0-4.76,2.6-5.84,3.46-.87.65-1.73,1.08-2.81,1.52-6.06,3.46-7.36,6.49-7.36,13.63,0,5.19,1.95,8.87,5.19,12.55,1.95,2.16,7.14,8.01,9.52,8.87,3.68,1.52,9.31.87,13.42,1.3,3.03-1.95,7.36-5.19,8.87-8.44l1.08-.65c.65-.87.65-2.16,1.08-3.25,1.51-3.46,2.6-3.25,2.6-8.22,0-3.03-1.3-6.06-3.03-8.44Z"/>
    <path class="st2" d="M475.2,363.82c-.22,3.9-1.95,7.57-1.95,11.25,0,2.16.43,4.33.43,6.49,0,3.03-.65,5.84-1.51,8.66-.65,1.51-1.52,2.81-1.95,4.33-.43,1.95-.22,3.9-.65,5.63-.22,1.51-1.08,2.81-1.3,4.33-.22,2.16.22,4.33.22,6.49,0,3.03-1.51,5.19-1.95,8.01-.43,2.6-.22,9.31-.87,11.25-1.3,3.25-5.63,9.95-9.52,9.95-4.11,0-9.52-4.54-9.52-8.87,0-2.81,1.52-5.19,1.52-7.79,0-.87-.22-1.73-.43-2.6,1.08-3.03,1.95-3.68,1.95-7.14,0-1.08-.22-2.6-.65-3.68-1.08-.43-2.16-.65-3.25-.65-3.68,0-7.14,1.73-10.82,1.73-2.81,0-5.63-.43-8.22-.43-1.73,0-3.46.22-5.19.22-.65,0-1.3,0-1.95-.22-2.81-.65-14.28-11.25-15.15-13.63-.22-1.08-.43-2.38-.43-3.46,0-3.68,1.95-6.71,3.68-9.74,1.08-1.95,2.16-4.76,3.68-6.28.65-.87,2.16-1.08,3.03-1.95,1.08-.65,1.51-1.73,2.6-2.38,4.54-3.25,10.6-4.76,16.01-4.76,1.51,0,3.25,0,4.76.22,3.25.65,5.63,2.6,8.66,3.89,1.08.43,4.33.65,4.98,1.3.43.22.65.65.65,1.08,1.08.43,2.16.22,3.25.65,2.16-1.73,1.08-5.84,1.08-8.44,0-4.33,1.3-8.66,1.3-13.2,0-5.63-4.11-18.61-10.6-19.69h-1.51c-5.41,0-8.22,4.98-14.72,4.98-4.54,3.9-7.14,7.36-12.55,10.17-1.08.43-2.38,1.73-3.68,1.73-.43,0-.87-.22-1.3-.65-.65-.87-1.08-1.95-1.08-3.03,0-6.06,6.71-8.44,8.44-12.55,1.3-.43,2.38-1.08,3.25-1.95l.65-1.08c1.73-.87,3.9-1.52,5.63-2.6.65-.43,1.08-1.3,1.73-1.95,3.46-1.95,9.74-3.25,13.85-3.25,2.6,0,8.22.43,10.6,1.52.87.22,1.3.87,1.95,1.3,4.11,1.73,6.49,3.25,9.31,6.71,5.63,6.71,7.79,16.88,7.79,25.32,0,1.51,0,3.25-.22,4.76ZM447.72,386.98c-3.25-3.25-14.28-5.19-18.83-5.19-4.11,0-9.52,1.08-9.52,6.28,0,3.46,2.38,8.22,5.19,10.17,2.81,1.95,7.14,1.73,10.6,1.95,1.95.22,3.89.65,5.84.65,3.46,0,7.79-.65,9.74-3.68l.22-1.3c0-3.03-1.08-6.71-3.25-8.87Z"/>
  </g>
  <g>
    <path class="st0" d="M337.14,48.19c0,2.86-2.97,7.44-4.34,10.11-1.14,2.48-3.88,4.01-5.48,6.3-1.14,1.53-4.57,6.11-5.94,7.25-2.28,2.1-5.48,3.24-7.54,5.15-.69.57-.91,1.34-1.6,1.91-.69.76-15.76,9.92-16.67,10.11-.69.19-1.37.19-2.06.38-.69.19-.91.57-1.37.76-2.74.95-5.94,1.34-8.68,2.1-4.8,1.15-7.54,3.82-13.25,3.82-2.97,0-6.85,1.14-9.82,1.72-5.94,1.14-11.88,1.34-18.04,1.34-3.2,0-6.62,0-9.82-.19-1.6,0-3.43-.38-5.02-.38s-2.97.38-4.57.38h-.46c-1.37,0-2.97-.57-4.34-.76-2.74-.38-5.71-.76-8.45-1.15-1.37-.38-2.97-.19-4.34-.57-2.28-.38-4.34-1.53-6.4-2.29-5.71-1.91-11.42-3.43-17.13-5.15-1.14-.38-2.51-.38-3.65-.76-2.28-.95-3.65-2.86-5.71-4.01-2.28-1.34-4.8-2.1-7.08-3.24-2.28-.95-12.33-6.3-13.7-7.44-1.37-1.34-9.82-10.49-10.73-12.02-.46-.76-.91-1.53-1.37-2.29-.91-1.34-4.57-7.63-4.57-8.59,0-1.53,2.28-2.1,3.88-2.1,1.37,0,3.2.38,4.11,1.34,3.88,2.86,6.85,6.11,10.05,9.35,2.51,2.48,7.08,3.63,10.05,5.53,1.14.76,1.83,1.72,2.97,2.48,3.2,2.1,7.08,3.43,10.73,5.15,1.14.57,2.06,1.53,3.43,1.91,1.83.57,3.88.76,5.71,1.14,5.94,1.34,11.88,3.05,18.04,4.01,2.28.38,4.8.38,7.08.76,2.51.38,5.25,1.34,7.77,1.34s4.8-.57,7.31-.57c3.65,0,7.54.19,11.42.19,6.39,0,13.02,0,19.18-.57,2.74-.19,5.25-1.34,7.99-1.53,1.6-.19,3.43,0,5.25,0,2.06,0,3.43-.76,5.48-1.15,1.83-.38,3.65-.76,5.71-.95,10.73-1.91,28.78-10.3,35.63-17.74,2.06-2.1,5.02-2.86,6.17-5.53.69-1.72,3.2-2.48,3.65-4.01.91-2.48,3.88-4.58,7.08-4.58,2.28,0,3.43,1.14,3.43,3.05Z"/>
    <path class="st1" d="M260.24,54.65c-1.23,1.23-2.25,2.87-3.68,3.68-1.84,1.23-4.3,1.84-6.35,2.66-1.64.82-4.09,2.25-5.73,2.66-1.64.41-3.48,0-5.12,0-2.05,0-4.09.41-6.14.41s-3.89-.61-5.73-2.05c-5.53-.41-11.05-2.46-15.15-6.35-.82-.61-1.02-1.43-1.64-2.05-.61-.41-1.43-.61-2.05-1.02-6.35-4.71-7.57-9.62-7.57-17.19,0-7.16,3.68-13.51,6.96-19.65.2-.61.2-1.23.61-1.64.61-.82,1.84-1.23,2.66-2.05,1.43-1.64,2.25-3.89,4.09-5.32.61-.61,1.43-.61,2.05-1.02,1.23-.82,2.05-2.66,3.27-3.27,3.89-2.05,10.64-2.46,14.94-2.46,8.6,0,20.47,2.87,24.97,11.05,1.02,1.43,1.43,2.87,2.66,4.09,1.64,1.43,3.68,2.46,4.91,4.3.2.41.2,1.02.41,1.43,1.84,3.89,2.46,7.78,2.46,12.08,0,9.62-4.09,15.35-10.85,21.7ZM254.51,23.13c-.61-.61-1.23-1.02-1.64-1.64-1.84-2.05-3.07-5.94-5.73-6.76-1.43-.61-13.1-3.27-14.12-3.27-1.23,0-4.5,2.46-5.53,3.27-.82.61-1.64,1.02-2.66,1.43-5.73,3.27-6.96,6.14-6.96,12.89,0,4.91,1.84,8.39,4.91,11.87,1.84,2.05,6.75,7.57,9.01,8.39,3.48,1.43,8.8.82,12.69,1.23,2.87-1.84,6.96-4.91,8.39-7.98l1.02-.61c.61-.82.61-2.05,1.02-3.07,1.43-3.27,2.46-3.07,2.46-7.78,0-2.87-1.23-5.73-2.87-7.98Z"/>
    <path class="st0" d="M365.12,211.22c-2.72.88-7.99-.52-10.96-1-2.71-.32-5.01-2.45-7.68-3.27-1.8-.61-7.22-2.46-8.73-3.41-2.7-1.52-4.78-4.21-7.23-5.58-.76-.47-1.55-.46-2.31-.93-.94-.42-14.31-11.92-14.77-12.73-.39-.59-.6-1.24-1-1.84-.39-.59-.83-.69-1.15-1.07-1.75-2.31-3.11-5.23-4.68-7.61-2.57-4.21-5.96-5.99-7.72-11.42-.92-2.82-3.21-6.16-4.67-8.81-2.92-5.29-4.94-10.88-6.85-16.75-.99-3.04-2.05-6.3-2.85-9.4-.49-1.52-.7-3.38-1.19-4.9s-1.28-2.71-1.77-4.23l-.14-.43c-.42-1.3-.37-3-.62-4.36-.48-2.72-1.04-5.67-1.52-8.39-.06-1.42-.74-2.88-.8-4.3-.34-2.29.11-4.6.2-6.79.05-6.02-.26-11.92-.39-17.88,0-1.2-.41-2.51-.4-3.71.2-2.47,1.59-4.36,2.05-6.67.56-2.58.51-5.21.9-7.74.2-2.47,2.18-13.67,2.84-15.33.85-1.72,6.95-12.58,8.11-13.92.58-.67,1.17-1.34,1.75-2.01.99-1.28,5.85-6.7,6.75-7,1.45-.47,2.7,1.52,3.2,3.04.42,1.3.63,3.16,0,4.32-1.52,4.58-3.69,8.4-5.79,12.45-1.58,3.16-1.26,7.85-2.16,11.27-.37,1.32-1.07,2.27-1.44,3.59-1.01,3.69-1.08,7.79-1.58,11.8-.19,1.26-.82,2.43-.76,3.85.02,1.91.47,3.93.68,5.78.56,6.06.77,12.24,1.76,18.4.34,2.29,1.12,4.68,1.46,6.97.41,2.51.35,5.41,1.13,7.8.78,2.39,2.03,4.38,2.8,6.77,1.13,3.47,2.15,7.23,3.35,10.92,1.98,6.08,4.02,12.38,6.47,18.07,1.03,2.55,2.89,4.58,3.92,7.13.68,1.46,1.06,3.26,1.62,5,.64,1.95,1.78,3.02,2.78,4.86.93,1.62,1.86,3.24,2.67,5.14,5.13,9.62,18.69,24.18,27.89,28.4,2.63,1.31,4.27,3.89,7.17,4.16,1.84.12,3.35,2.27,4.94,2.24,2.64.1,5.55,2.28,6.54,5.32.71,2.17-.03,3.61-1.84,4.2Z"/>
    <path class="st1" d="M335.21,140.08c-1.55-.79-3.42-1.26-4.64-2.36-1.74-1.37-3.08-3.52-4.49-5.21-1.28-1.3-3.41-3.2-4.3-4.63-.9-1.43-1.08-3.31-1.58-4.87-.63-1.95-1.65-3.77-2.29-5.71s-.62-3.89.18-6.08c-1.32-5.38-1.08-11.27,1.35-16.36.33-.97,1.05-1.42,1.44-2.19.2-.71.14-1.55.34-2.26,2.52-7.49,6.81-10.18,14.01-12.52,6.81-2.21,13.99-.67,20.84.55.65,0,1.23-.19,1.75.08.97.33,1.74,1.37,2.77,1.9,2,.86,4.39.94,6.33,2.25.77.39,1.03,1.17,1.61,1.63,1.16.91,3.16,1.12,4.13,2.1,3.15,3.07,5.63,9.36,6.95,13.45,2.66,8.18,3.6,20.35-2.79,27.16-1.05,1.42-2.28,2.25-3.07,3.8-.86,2-1.2,4.26-2.57,6-.33.32-.91.51-1.24.83-3.13,2.95-6.64,4.74-10.73,6.07-9.15,2.97-15.87.85-23.99-3.61ZM363.42,124.89c.39-.77.59-1.48,1.05-2.06,1.38-2.39,4.7-4.75,4.65-7.54.14-1.55-.93-13.47-1.25-14.44-.38-1.17-3.73-3.52-4.82-4.24-.84-.59-1.48-1.24-2.19-2.09-4.89-4.44-7.99-4.72-14.41-2.63-4.67,1.52-7.41,4.34-9.77,8.34-1.38,2.38-5.12,8.76-5.2,11.16-.29,3.75,1.94,8.62,2.75,12.45,2.64,2.16,6.82,5.1,10.19,5.51l.9.78c.97.33,2.14-.05,3.24.02,3.56.35,3.68,1.39,8.16-.07,2.72-.89,5.07-2.94,6.71-5.19Z"/>
    <path class="st0" d="M218.71,288.21c-1.68-2.32-1.97-7.76-2.43-10.73-.53-2.68.79-5.52.73-8.32.03-1.91.11-7.62.54-9.36.61-3.04,2.53-5.85,3.07-8.6.22-.87-.05-1.62.17-2.48.11-1.02,6.92-17.29,7.54-17.98.44-.56,1-.96,1.44-1.52.44-.56.4-1,.66-1.42,1.66-2.38,4.02-4.57,5.79-6.8,3.21-3.75,3.85-7.52,8.47-10.87,2.4-1.75,4.87-4.95,6.94-7.16,4.13-4.42,8.82-8.06,13.81-11.69,2.59-1.88,5.36-3.89,8.06-5.62,1.29-.94,3-1.71,4.29-2.64s2.18-2.05,3.47-2.99l.37-.27c1.11-.81,2.74-1.28,3.96-1.93,2.44-1.3,5.07-2.74,7.51-4.04,1.33-.5,2.51-1.59,3.85-2.09,2.07-1.03,4.41-1.32,6.52-1.91,5.74-1.81,11.26-3.93,16.89-5.9,1.15-.36,2.26-1.17,3.4-1.53,2.41-.57,4.64.17,6.97-.11,2.63-.26,5.11-1.12,7.63-1.54,2.41-.57,13.68-2.16,15.46-2.03,1.89.27,14.11,2.72,15.75,3.42.82.35,1.64.7,2.45,1.05,1.52.54,8.18,3.49,8.74,4.26.9,1.24-.61,3.04-1.91,3.98-1.11.81-2.81,1.57-4.11,1.34-4.82-.03-9.13-.91-13.63-1.66-3.49-.53-7.86,1.23-11.38,1.43-1.37.05-2.49-.32-3.86-.26-3.82.18-7.75,1.38-11.71,2.14-1.26.21-2.56-.03-3.89.47-1.81.61-3.59,1.66-5.29,2.43-5.59,2.41-11.4,4.51-16.95,7.36-2.07,1.03-4.1,2.51-6.18,3.54-2.26,1.17-5.03,2.01-7.07,3.48-2.03,1.48-3.54,3.28-5.58,4.76-2.96,2.15-6.21,4.28-9.35,6.56-5.17,3.76-10.53,7.65-15.18,11.74-2.11,1.77-3.46,4.17-5.57,5.93-1.18,1.09-2.77,2.01-4.25,3.09-1.66,1.21-2.32,2.63-3.76,4.15-1.25,1.38-2.51,2.77-4.06,4.13-7.56,7.85-17.22,25.25-18.39,35.3-.43,2.91-2.38,5.27-1.74,8.1.45,1.79-1.13,3.89-.6,5.39.72,2.54-.45,5.99-3.04,7.87-1.85,1.34-3.44,1.09-4.57-.46Z"/>
    <path class="st1" d="M277.13,237.78c.27-1.72.14-3.64.81-5.15.77-2.08,2.39-4.02,3.57-5.88.84-1.62,1.99-4.23,3.07-5.52,1.08-1.29,2.81-2.04,4.14-3.01,1.66-1.2,3.07-2.74,4.73-3.94s3.51-1.79,5.84-1.71c4.71-2.92,10.39-4.51,15.98-3.77,1.02.02,1.67.56,2.53.69.74-.03,1.52-.35,2.26-.38,7.9.08,11.78,3.33,16.23,9.46,4.21,5.8,4.96,13.09,5.92,19.99.2.62.56,1.11.47,1.69-.02,1.02-.77,2.08-.95,3.22-.2,2.17.46,4.47-.18,6.71-.14.86-.8,1.34-1.06,2.03-.51,1.38-.09,3.36-.72,4.57-1.94,3.94-7.17,8.24-10.64,10.77-6.95,5.05-18.24,9.71-26.7,5.74-1.67-.56-2.84-1.48-4.56-1.75-2.17-.2-4.42.18-6.5-.59-.41-.21-.77-.71-1.17-.92-3.78-2.06-6.56-4.85-9.08-8.33-5.65-7.78-5.71-14.83-3.98-23.93ZM300.29,259.91c.86.14,1.59.11,2.29.36,2.69.57,5.97,3,8.61,2.1,1.52-.35,12.52-5.05,13.35-5.65.99-.72,2.2-4.63,2.55-5.9.3-.98.72-1.79,1.31-2.72,2.71-6.02,2.02-9.06-1.95-14.52-2.89-3.97-6.42-5.71-10.95-6.72-2.69-.57-9.92-2.16-12.22-1.5-3.66.89-7.6,4.51-10.99,6.46-1.24,3.18-2.74,8.06-2.1,11.39l-.47,1.1c-.02,1.02.71,2.02.98,3.09.77,3.49-.18,3.93,2.58,7.74,1.68,2.32,4.36,3.91,7.01,4.77Z"/>
    <path class="st0" d="M100.25,172.75c1.68-2.32,6.78-4.28,9.45-5.63,2.38-1.34,5.5-.96,8.14-1.87,1.82-.56,7.28-2.25,9.07-2.38,3.08-.36,6.34.6,9.13.26.89-.06,1.52-.54,2.41-.6,1-.21,18.58,1.24,19.43,1.62.67.25,1.22.65,1.89.9.67.25,1.08.07,1.56.19,2.78.84,5.59,2.41,8.26,3.4,4.55,1.89,8.34,1.34,12.96,4.7,2.4,1.75,6.22,3.1,8.95,4.38,5.48,2.56,10.39,5.9,15.38,9.52,2.59,1.88,5.36,3.89,7.83,5.93,1.29.94,2.55,2.32,3.84,3.26s2.63,1.44,3.92,2.38l.37.27c1.11.81,2.07,2.21,3.06,3.17,1.99,1.92,4.17,3.97,6.16,5.89.88,1.11,2.29,1.9,3.17,3.01,1.62,1.65,2.61,3.79,3.83,5.61,3.5,4.9,7.22,9.49,10.83,14.24.7.98,1.81,1.78,2.51,2.77,1.29,2.11,1.27,4.46,2.26,6.6,1.06,2.42,2.65,4.52,3.82,6.79,1.29,2.11,6.28,12.34,6.71,14.07.32,1.89,1.78,14.26,1.62,16.03-.08.89-.16,1.77-.24,2.66-.05,1.62-.79,8.86-1.35,9.63-.9,1.24-3.08.36-4.37-.58-1.11-.81-2.36-2.19-2.54-3.5-1.46-4.6-1.95-8.97-2.63-13.47-.57-3.48-3.6-7.09-4.88-10.38-.47-1.29-.47-2.46-.94-3.75-1.35-3.58-3.71-6.94-5.66-10.48-.59-1.13-.77-2.44-1.65-3.56-1.14-1.54-2.69-2.9-3.95-4.28-4.02-4.57-7.81-9.45-12.24-13.85-1.62-1.65-3.66-3.13-5.28-4.78-1.81-1.79-3.46-4.17-5.5-5.64s-4.22-2.36-6.25-3.83c-2.96-2.15-5.99-4.58-9.13-6.87-5.17-3.76-10.53-7.65-15.86-10.81-2.33-1.46-5.03-2.01-7.36-3.46-1.41-.79-2.77-2.01-4.25-3.09-1.66-1.21-3.22-1.4-5.11-2.3-1.7-.77-3.41-1.53-5.18-2.58-9.81-4.77-29.34-8.58-39.25-6.59-2.9.49-5.75-.64-8.24.85-1.56.99-4.04.13-5.31,1.09-2.2,1.47-5.83,1.42-8.42-.46-1.85-1.34-2.1-2.94-.98-4.48Z"/>
    <path class="st1" d="M166.26,212.73c1.72-.27,3.51-1,5.15-.82,2.21.09,4.56,1.04,6.7,1.58,1.81.3,4.63.58,6.2,1.22,1.56.63,2.81,2.04,4.14,3.01,1.66,1.2,3.55,2.07,5.21,3.28s2.78,2.78,3.43,5.02c4.23,3.58,7.5,8.48,8.52,14.04.3.98-.01,1.76.12,2.62.26.69.8,1.34,1.05,2.03,2.37,7.54.47,12.23-3.98,18.36-4.21,5.8-10.92,8.76-17.18,11.81-.53.38-.89.87-1.46.96-.98.3-2.21-.09-3.36.09-2.12.48-4.11,1.82-6.44,1.9-.86.14-1.52-.35-2.26-.38-1.47-.06-3.22.95-4.57.72-4.35-.63-10.05-4.27-13.53-6.79-6.95-5.05-14.88-14.35-13.71-23.62.01-1.76.53-3.16.25-4.88-.48-2.12-1.54-4.15-1.45-6.36.07-.45.44-.95.51-1.4.8-4.23,2.59-7.74,5.11-11.21,5.65-7.78,12.33-10.01,21.53-11.18ZM152.37,241.6c.14.86.39,1.55.36,2.29.29,2.74-1,6.61.67,8.83.8,1.34,8.67,10.35,9.5,10.95.99.72,5.09.66,6.4.6,1.02-.02,1.93.13,3,.4,6.56.72,9.24-.88,13.21-6.34,2.89-3.97,3.44-7.87,3-12.49-.29-2.74-1.01-10.1-2.35-12.08-1.97-3.21-6.64-5.84-9.54-8.45-3.4-.19-8.52-.12-11.48,1.53l-1.19-.1c-.98.3-1.7,1.3-2.63,1.88-3.08,1.81-3.79,1.04-6.56,4.85-1.68,2.32-2.37,5.36-2.37,8.14Z"/>
    <path class="st0" d="M173.44,24.41c2.72.88,6.16,5.12,8.28,7.25,2.01,1.85,2.61,4.93,4.29,7.16,1.1,1.56,4.4,6.23,5.06,7.89,1.29,2.82,1.39,6.22,2.57,8.76.33.83.99,1.28,1.32,2.11.51.89,4.57,18.05,4.47,18.98-.03.71-.24,1.36-.27,2.07-.03.71.26,1.05.3,1.54.06,2.9-.56,6.06-.69,8.9-.39,4.92,1.3,8.35-.46,13.78-.92,2.82-1.03,6.87-1.4,9.87-.75,6-2.4,11.71-4.31,17.57-.99,3.04-2.05,6.3-3.22,9.28-.49,1.52-1.42,3.14-1.92,4.66s-.55,2.94-1.05,4.46l-.14.43c-.42,1.3-1.46,2.65-2.07,3.89-1.21,2.49-2.49,5.19-3.7,7.68-.79,1.19-1.1,2.76-1.89,3.95-1.07,2.05-2.79,3.66-4.15,5.37-3.58,4.84-6.79,9.8-10.19,14.7-.72.97-1.14,2.27-1.85,3.24-1.61,1.88-3.85,2.59-5.57,4.19-1.98,1.76-3.48,3.91-5.27,5.73-1.61,1.88-9.8,9.78-11.31,10.73-1.69.89-13.02,6.1-14.75,6.49-.87.2-1.73.4-2.6.6-1.55.46-8.67,1.99-9.58,1.69-1.45-.47-1.29-2.82-.8-4.34.42-1.3,1.35-2.92,2.54-3.5,3.92-2.81,7.92-4.63,12-6.67,3.14-1.62,5.64-5.61,8.37-7.85,1.08-.85,2.2-1.21,3.28-2.06,2.98-2.39,5.45-5.67,8.22-8.62.9-.91,2.09-1.48,2.87-2.67,1.11-1.56,1.93-3.46,2.85-5.08,3.11-5.23,6.57-10.35,9.39-15.92,1.07-2.05,1.85-4.44,2.91-6.5,1.14-2.27,2.89-4.58,3.67-6.97.78-2.39.94-4.74,1.71-7.13,1.13-3.47,2.51-7.11,3.71-10.8,1.98-6.08,4.02-12.38,5.38-18.42.67-2.67.35-5.41,1.02-8.07.31-1.58,1.06-3.26,1.62-5,.64-1.95.33-3.49.6-5.57.2-1.86.4-3.71.86-5.72,1.5-10.8-.91-30.55-5.87-39.37-1.36-2.6-1.17-5.66-3.36-7.57-1.42-1.18-1.37-3.81-2.68-4.71-2.08-1.64-3.16-5.11-2.17-8.15.71-2.17,2.15-2.9,3.96-2.31Z"/>
    <path class="st1" d="M155.82,99.55c.79,1.55,2.03,3.03,2.37,4.64.6,2.13.42,4.66.57,6.86.27,1.81.88,4.59.76,6.27-.12,1.68-1.08,3.31-1.58,4.87-.63,1.95-.88,4.02-1.51,5.97s-1.79,3.51-3.72,4.82c-2.1,5.13-5.75,9.75-10.72,12.44-.84.59-1.68.53-2.45.92-.58.46-1.03,1.17-1.61,1.63-6.44,4.58-11.49,4.23-18.69,1.89-6.81-2.21-11.71-7.68-16.54-12.69-.52-.38-1.1-.57-1.37-1.09-.59-.84-.6-2.13-1.12-3.16-1.11-1.87-3-3.34-3.8-5.54-.39-.77-.14-1.55-.34-2.26-.4-1.42-1.9-2.77-2.1-4.13-.75-4.33.95-10.88,2.28-14.97,2.66-8.18,9.05-18.58,18.23-20.33,1.68-.53,3.17-.48,4.72-1.27,1.87-1.11,3.47-2.75,5.61-3.34.45-.07,1.04.12,1.49.05,4.27-.55,8.16.07,12.24,1.4,9.15,2.97,13.34,8.64,17.28,17.02ZM124.07,95.26c-.77.39-1.35.85-2.06,1.05-2.52,1.12-6.59,1.09-8.2,3.36-1.03,1.17-7.16,11.45-7.48,12.42-.38,1.17.94,5.04,1.41,6.27.33.97.47,1.87.54,2.97,1.34,6.46,3.69,8.52,10.11,10.6,4.67,1.52,8.55.84,12.81-1,2.52-1.12,9.29-4.08,10.76-5.97,2.44-2.87,3.5-8.12,5.09-11.69-.87-3.3-2.52-8.14-5-10.45l-.27-1.16c-.59-.84-1.76-1.22-2.6-1.92-2.67-2.37-2.16-3.28-6.64-4.74-2.72-.89-5.83-.6-8.48.26Z"/>
  </g>
</svg>